<svg xmlns="http://www.w3.org/2000/svg" width="15" height="16" viewBox="0 0 15 16" fill="none">
  <path d="M12.019 8.455C12.005 7.83387 12.1648 7.22118 12.4803 6.68599C12.7959 6.15081 13.2547 5.71441 13.805 5.426C13.4581 4.94463 13.0042 4.55026 12.4792 4.27385C11.9542 3.99745 11.3722 3.84655 10.779 3.833C9.51098 3.733 8.12498 4.572 7.61798 4.572C7.08198 4.572 5.85298 3.872 4.88898 3.872C2.89598 3.901 0.776978 5.458 0.776978 8.627C0.786067 9.6155 0.959778 10.5956 1.29098 11.527C1.74898 12.838 3.39598 16.05 5.12098 15.999C6.02098 15.978 6.65698 15.36 7.82898 15.36C8.96498 15.36 9.55398 15.999 10.558 15.999C12.294 15.974 13.787 13.052 14.223 11.738C13.5715 11.4714 13.0142 11.0167 12.6224 10.432C12.2305 9.8472 12.0218 9.15892 12.023 8.455H12.019ZM9.99598 2.59C10.3118 2.24208 10.5512 1.83186 10.6988 1.38577C10.8464 0.939685 10.8989 0.467622 10.853 0C9.9178 0.101249 9.05375 0.546821 8.42898 1.25C8.10857 1.59242 7.86207 1.99712 7.70482 2.43892C7.54758 2.88071 7.48296 3.35015 7.51498 3.818C7.99674 3.82761 8.47373 3.72103 8.90559 3.50727C9.33744 3.29352 9.71145 2.97889 9.99598 2.59Z" fill="black"/>
</svg>