<svg xmlns="http://www.w3.org/2000/svg" width="25" height="25" viewBox="0 0 30 30" fill="none">
  <path d="M15 0C17.9667 0 20.8668 0.879735 23.3336 2.52796C25.8003 4.17618 27.7229 6.51886 28.8582 9.25975C29.9935 12.0006 30.2906 15.0166 29.7118 17.9264C29.133 20.8361 27.7044 23.5088 25.6066 25.6066C23.5088 27.7044 20.8361 29.133 17.9264 29.7118C15.0166 30.2906 12.0006 29.9935 9.25975 28.8582C6.51886 27.7229 4.17618 25.8003 2.52796 23.3336C0.879735 20.8668 0 17.9667 0 15C0 11.0218 1.58035 7.20644 4.3934 4.3934C7.20644 1.58035 11.0218 0 15 0ZM20.3 9.7L20.174 9.591C19.9828 9.44979 19.7518 9.37276 19.5141 9.37096C19.2764 9.36916 19.0443 9.44269 18.851 9.581L18.71 9.701L15.01 13.401L11.3 9.7L11.174 9.592C10.9828 9.45079 10.7518 9.37376 10.5141 9.37196C10.2764 9.37016 10.0443 9.44369 9.851 9.582L9.71 9.702L9.601 9.828C9.45964 10.0191 9.38244 10.25 9.38046 10.4877C9.37848 10.7254 9.45184 10.9576 9.59 11.151L9.71 11.292L13.41 14.992L9.7 18.7L9.592 18.826C9.45079 19.0172 9.37376 19.2482 9.37196 19.4859C9.37016 19.7236 9.44369 19.9557 9.582 20.149L9.702 20.29L9.828 20.399C10.0192 20.5402 10.2502 20.6172 10.4879 20.619C10.7256 20.6208 10.9577 20.5473 11.151 20.409L11.292 20.289L14.992 16.589L18.7 20.3L18.826 20.408C19.0172 20.5492 19.2482 20.6262 19.4859 20.628C19.7236 20.6298 19.9557 20.5563 20.149 20.418L20.29 20.298L20.399 20.172C20.5402 19.9808 20.6172 19.7498 20.619 19.5121C20.6208 19.2744 20.5473 19.0423 20.409 18.849L20.3 18.7L16.6 15L20.3 11.3L20.408 11.174C20.5492 10.9828 20.6262 10.7518 20.628 10.5141C20.6298 10.2764 20.5563 10.0443 20.418 9.851L20.3 9.7Z" fill="#A5A5A5"/>
</svg>