<svg xmlns="http://www.w3.org/2000/svg" width="17" height="16" viewBox="0 0 17 16" fill="none">
  <path d="M16.549 8.04825C16.5489 6.51005 16.108 5.0041 15.2786 3.70869C14.4491 2.41329 13.2658 1.38269 11.8688 0.738896C10.4718 0.0951056 8.91962 -0.134907 7.39596 0.0760886C5.8723 0.287085 4.44101 0.930253 3.27153 1.92945C2.10205 2.92864 1.24338 4.24201 0.797161 5.71407C0.350945 7.18613 0.335877 8.75522 0.753741 10.2356C1.1716 11.7159 2.0049 13.0456 3.15497 14.067C4.30504 15.0885 5.72372 15.759 7.24305 15.9992V10.3752H5.19805V8.04825H7.24305V6.27525C7.19918 5.86116 7.2469 5.44249 7.38284 5.0489C7.51878 4.65531 7.7396 4.29643 8.02967 3.99768C8.31974 3.69893 8.67195 3.46762 9.06136 3.32014C9.45077 3.17265 9.86785 3.11261 10.283 3.14425C10.8861 3.15269 11.4877 3.20517 12.083 3.30125V5.28125H11.069C10.8962 5.25838 10.7205 5.27465 10.5548 5.32885C10.3892 5.38306 10.2378 5.47381 10.1119 5.5944C9.98604 5.71499 9.88889 5.86234 9.82764 6.02554C9.76639 6.18874 9.7426 6.36362 9.75805 6.53725V8.04825H11.989L11.632 10.3752H9.75805V16.0002C11.6513 15.7001 13.3753 14.7343 14.6201 13.2767C15.8649 11.819 16.5489 9.9651 16.549 8.04825Z" fill="white"/>
</svg>