<svg xmlns="http://www.w3.org/2000/svg" width="20" height="16" viewBox="0 0 20 16" fill="none">
  <path d="M10.0009 12.5009C8.86876 12.4995 7.77906 12.0699 6.95065 11.2982C6.12223 10.5266 5.61645 9.47007 5.53488 8.34088L2.25688 5.80788C1.81751 6.34713 1.43325 6.92903 1.10988 7.54488C1.03843 7.68627 1.00121 7.84247 1.00121 8.00088C1.00121 8.1593 1.03843 8.3155 1.10988 8.45688C1.9362 10.1112 3.20409 11.5047 4.77326 12.4832C6.34243 13.4616 8.1517 13.9869 10.0009 14.0009C10.8228 13.9954 11.6407 13.8855 12.4349 13.6739L10.8129 12.4189C10.5453 12.4708 10.2735 12.4982 10.0009 12.5009ZM19.8079 14.3169L16.3529 11.6469C17.4023 10.7624 18.2654 9.67801 18.8919 8.45688C18.9633 8.3155 19.0006 8.1593 19.0006 8.00088C19.0006 7.84247 18.9633 7.68627 18.8919 7.54488C18.0656 5.89054 16.7977 4.49704 15.2285 3.51858C13.6593 2.54012 11.8501 2.01485 10.0009 2.00088C8.39326 2.00343 6.81185 2.40841 5.40088 3.17888L1.42188 0.105884C1.31728 0.0250195 1.1849 -0.0111203 1.05372 0.00537151C0.922532 0.0218633 0.80322 0.089644 0.721884 0.193884L0.105884 0.983884C0.0250195 1.08849 -0.0111203 1.22087 0.00537151 1.35205C0.0218633 1.48324 0.089644 1.60255 0.193884 1.68388L18.5799 15.8939C18.6845 15.9747 18.8169 16.0109 18.948 15.9944C19.0792 15.9779 19.1985 15.9101 19.2799 15.8059L19.8939 15.0159C19.9747 14.9113 20.0109 14.7789 19.9944 14.6477C19.9779 14.5165 19.9101 14.3972 19.8059 14.3159L19.8079 14.3169ZM14.0669 9.87888L12.8389 8.92988C13.0164 8.41651 13.0492 7.86421 12.9339 7.33341C12.8185 6.80261 12.5594 6.31378 12.1848 5.92041C11.8102 5.52703 11.3346 5.24428 10.8101 5.10308C10.2856 4.96189 9.73232 4.9677 9.21088 5.11988C9.39888 5.37519 9.50048 5.68383 9.50088 6.00088C9.49622 6.10631 9.48013 6.21093 9.45288 6.31288L7.15288 4.53488C7.95191 3.86747 8.95978 3.50155 10.0009 3.50088C11.1944 3.50088 12.339 3.97499 13.1829 4.8189C14.0268 5.66282 14.5009 6.80741 14.5009 8.00088C14.497 8.65129 14.3488 9.29273 14.0669 9.87888Z" fill="#A5A5A5"/>
</svg>