<svg xmlns="http://www.w3.org/2000/svg" width="20" height="10" viewBox="0 0 20 10" fill="none">
  <path d="M9.67369 3.462C9.31094 2.46817 8.65752 1.6065 7.79842 0.989058C6.93932 0.37162 5.9143 0.0269922 4.85668 0C4.20814 0.00474881 3.56702 0.138382 2.97058 0.39313C2.37415 0.647879 1.83431 1.01866 1.38246 1.48391C0.930611 1.94916 0.575761 2.4996 0.338546 3.10322C0.101331 3.70684 -0.0135153 4.3516 0.000684746 5C-0.00273779 5.65353 0.122664 6.30133 0.369723 6.90638C0.616783 7.51142 0.980655 8.06185 1.44054 8.52619C1.90043 8.99054 2.44732 9.3597 3.04996 9.61259C3.65259 9.86547 4.29915 9.99712 4.95268 10C5.99844 9.97205 7.01075 9.62561 7.85436 9.00698C8.69796 8.38834 9.33268 7.52699 9.67369 6.538H14.6157V9.613H17.9377V6.539H20.0007V3.462H9.67369ZM4.98168 6.662C4.65357 6.662 4.33281 6.5647 4.05999 6.38241C3.78717 6.20011 3.57453 5.94101 3.44897 5.63787C3.3234 5.33473 3.29055 5.00116 3.35456 4.67935C3.41857 4.35753 3.57658 4.06192 3.80859 3.82991C4.04061 3.59789 4.33622 3.43989 4.65803 3.37588C4.97984 3.31186 5.31341 3.34472 5.61656 3.47028C5.9197 3.59585 6.1788 3.80849 6.36109 4.08131C6.54339 4.35413 6.64069 4.67488 6.64069 5.003C6.6391 5.44223 6.46371 5.86297 6.15284 6.17328C5.84198 6.48358 5.42092 6.65821 4.98168 6.659V6.662Z" fill="#A5A5A5"/>
</svg>