<svg xmlns="http://www.w3.org/2000/svg" width="18" height="18" viewBox="0 0 18 18" fill="none">
  <path d="M17.0138 12.5132L13.2988 10.9202C13.1398 10.853 12.9633 10.8389 12.7957 10.8802C12.6281 10.9215 12.4783 11.0158 12.3688 11.1492L10.7188 13.1612C8.13376 11.9426 6.05344 9.86226 4.83478 7.27724L6.84778 5.63124C6.98118 5.52168 7.07556 5.37191 7.11683 5.2043C7.15811 5.03668 7.14406 4.86021 7.07678 4.70124L5.48278 0.982241C5.40854 0.810705 5.27658 0.67058 5.1098 0.586188C4.94303 0.501795 4.75196 0.478463 4.56978 0.520241L1.11678 1.31724C0.941319 1.35823 0.784833 1.45726 0.67267 1.59828C0.560507 1.7393 0.499236 1.91406 0.49878 2.09424C0.497992 4.11761 0.895942 6.1213 1.66989 7.9908C2.44383 9.86029 3.5786 11.559 5.00933 12.9897C6.44007 14.4204 8.13873 15.5552 10.0082 16.3291C11.8777 17.1031 13.8814 17.501 15.9048 17.5002C16.085 17.4998 16.2597 17.4385 16.4007 17.3264C16.5418 17.2142 16.6408 17.0577 16.6818 16.8822L17.4818 13.4292C17.5227 13.2463 17.4987 13.0548 17.4139 12.8877C17.329 12.7206 17.1886 12.5882 17.0168 12.5132H17.0138Z" fill="#A5A5A5"/>
</svg>