<svg xmlns="http://www.w3.org/2000/svg" width="20" height="14" viewBox="0 0 20 14" fill="none">
  <path d="M19.8792 6.4935C18.961 4.65534 17.5522 3.10702 15.8087 2.01985C14.0652 0.932673 12.0549 0.349031 10.0002 0.333496C7.94557 0.349144 5.93531 0.932832 4.19179 2.01999C2.44828 3.10715 1.03947 4.65541 0.121206 6.4935C0.0416809 6.65067 0.000244141 6.82435 0.000244141 7.0005C0.000244141 7.17664 0.0416809 7.35032 0.121206 7.5075C1.03952 9.34547 2.44836 10.8936 4.19189 11.9806C5.93542 13.0676 7.94565 13.6511 10.0002 13.6665C12.0548 13.6508 14.0651 13.0672 15.8086 11.98C17.5521 10.8928 18.9609 9.34458 19.8792 7.5065C19.9586 7.34945 19.9999 7.17595 19.9999 7C19.9999 6.82404 19.9586 6.65054 19.8792 6.4935ZM10.0002 12.0005C9.0113 12.0005 8.0446 11.7073 7.22235 11.1578C6.40011 10.6084 5.75925 9.82754 5.38081 8.91391C5.00237 8.00028 4.90335 6.99495 5.09628 6.02504C5.28921 5.05514 5.76541 4.16422 6.46467 3.46496C7.16393 2.7657 8.05485 2.2895 9.02475 2.09657C9.99466 1.90364 11 2.00266 11.9136 2.3811C12.8273 2.75954 13.6081 3.4004 14.1576 4.22264C14.707 5.04489 15.0002 6.01159 15.0002 7.0005C15.0002 8.32658 14.4734 9.59835 13.5357 10.536C12.5981 11.4737 11.3263 12.0005 10.0002 12.0005ZM10.0002 3.6675C9.7026 3.67176 9.40694 3.71616 9.12121 3.7995C9.35564 4.11939 9.46787 4.51261 9.4376 4.90806C9.40734 5.3035 9.23658 5.67507 8.9562 5.95557C8.67583 6.23606 8.30434 6.40698 7.9089 6.43742C7.51347 6.46785 7.1202 6.35579 6.80021 6.1215C6.61799 6.79303 6.65098 7.50481 6.89452 8.15661C7.13806 8.80842 7.5799 9.36743 8.15782 9.75494C8.73574 10.1425 9.42065 10.339 10.1161 10.3168C10.8116 10.2946 11.4826 10.0549 12.0346 9.63135C12.5867 9.20781 12.992 8.6218 13.1936 7.9558C13.3951 7.28981 13.3827 6.57738 13.1581 5.91881C12.9335 5.26024 12.5079 4.68871 11.9415 4.28466C11.375 3.88062 10.696 3.66542 10.0002 3.6675Z" fill="#A5A5A5"/>
</svg>