<svg xmlns="http://www.w3.org/2000/svg" width="20" height="20" viewBox="0 0 20 20" fill="none">
  <path d="M10 11.25C11.1125 11.25 12.2001 10.9201 13.1251 10.302C14.0501 9.68394 14.7711 8.80543 15.1968 7.7776C15.6226 6.74976 15.734 5.61876 15.5169 4.52762C15.2999 3.43648 14.7641 2.4342 13.9775 1.64753C13.1908 0.860856 12.1885 0.325127 11.0974 0.108085C10.0062 -0.108957 8.87524 0.00243723 7.84741 0.42818C6.81957 0.853923 5.94107 1.57489 5.32298 2.49992C4.7049 3.42495 4.375 4.51248 4.375 5.625C4.37527 7.11676 4.96798 8.54735 6.02282 9.60219C7.07765 10.657 8.50824 11.2497 10 11.25ZM15 12.5H12.848C11.9545 12.9125 10.9821 13.1261 9.998 13.1261C9.01389 13.1261 8.0415 12.9125 7.148 12.5H5C3.67392 12.5 2.40215 13.0268 1.46447 13.9645C0.526784 14.9022 0 16.1739 0 17.5L0 18.125C0 18.6223 0.197544 19.0992 0.549175 19.4508C0.900805 19.8025 1.37772 20 1.875 20H18.125C18.6223 20 19.0992 19.8025 19.4508 19.4508C19.8025 19.0992 20 18.6223 20 18.125V17.5C20 16.1739 19.4732 14.9022 18.5355 13.9645C17.5979 13.0268 16.3261 12.5 15 12.5Z" fill="#A5A5A5"/>
</svg>